<?xml version="1.0" encoding="utf-8"?>
<!-- Generator: Adobe Illustrator 26.0.3, SVG Export Plug-In . SVG Version: 6.00 Build 0)  -->
<svg version="1.1" xmlns="http://www.w3.org/2000/svg" xmlns:xlink="http://www.w3.org/1999/xlink" x="0px" y="0px"
	 viewBox="0 0 612 792" style="enable-background:new 0 0 612 792;" xml:space="preserve">
<style type="text/css">
	.st0{display:none;}
</style>
<g id="Layer_1" class="st0">
</g>
<g id="Layer_2">
	<path d="M227.91,266.35L105.32,478.69c-1.92,3.33,0.48,7.49,4.33,7.49l293.56,0c1.78,0,3.43-0.95,4.32-2.5l122.59-212.34
		c1.92-3.33-0.48-7.49-4.33-7.49l-293.56,0C230.45,263.85,228.8,264.8,227.91,266.35z M324.18,284.55l-35.31,61.16
		c-1.92,3.33-6.73,3.33-8.65,0l-35.31-61.16c-1.92-3.33,0.48-7.49,4.32-7.49l70.62,0C323.7,277.06,326.1,281.22,324.18,284.55z
		 M128.2,465.48l21.65-37.5c1.92-3.33,6.73-3.33,8.65,0l21.65,37.5c1.92,3.33-0.48,7.49-4.32,7.49l-43.3,0
		C128.68,472.97,126.27,468.81,128.2,465.48z M198.29,470.47l-35.05-60.7c-0.89-1.55-0.89-3.45,0-4.99l23.33-40.41
		c1.92-3.33,6.73-3.33,8.65,0l58.37,101.11c1.92,3.33-0.48,7.49-4.33,7.49l-46.65,0C200.83,472.97,199.19,472.02,198.29,470.47z
		 M271.72,470.47l-71.76-124.3c-0.89-1.55-0.89-3.45,0-4.99l26.87-46.54c1.92-3.33,6.73-3.33,8.65,0l98.63,170.84
		c1.92,3.33-0.48,7.49-4.33,7.49l-53.74-0.01C274.26,472.97,272.62,472.01,271.72,470.47z M395.57,472.97l-38.99,0
		c-1.78,0-3.43-0.95-4.32-2.5l-13.75-23.81c-1.92-3.33,0.48-7.49,4.32-7.49l66.48,0c3.84,0,6.25,4.16,4.32,7.49l-13.74,23.8
		C399,472.02,397.35,472.97,395.57,472.97z M422.71,425.96l-93.27,0c-1.78,0-3.43-0.95-4.32-2.5l-26.95-46.67
		c-1.92-3.33,0.48-7.49,4.32-7.49l147.16,0c3.84,0,6.25,4.16,4.32,7.49l-26.94,46.67C426.14,425.01,424.49,425.96,422.71,425.96z
		 M463.05,356.09l-156.27,0c-3.84,0-6.25-4.16-4.32-7.49l39.86-69.05c0.89-1.55,2.54-2.5,4.33-2.5l156.27,0
		c3.84,0,6.25,4.16,4.33,7.49l-39.86,69.05C466.48,355.14,464.83,356.09,463.05,356.09z"/>
	<path d="M190.45,367.57L190.45,367.57c0.88,0.51,1.18,1.63,0.67,2.51l-21.17,36.68c-0.51,0.88-1.63,1.18-2.51,0.67l0,0
		c-0.88-0.51-1.18-1.63-0.67-2.51l21.17-36.68C188.45,367.36,189.57,367.06,190.45,367.57z"/>
	<path d="M356.46,468.81L356.46,468.81c-0.88,0.51-2,0.21-2.51-0.67l-13.12-22.72c-0.51-0.88-0.21-2,0.67-2.51l0,0
		c0.88-0.51,2-0.2,2.51,0.67l13.12,22.72C357.64,467.18,357.34,468.3,356.46,468.81z"/>
	<path d="M153.75,431.12L153.75,431.12c0.88,0.51,1.18,1.63,0.67,2.51l-19.96,34.57c-0.51,0.88-1.63,1.18-2.51,0.67l0,0
		c-0.88-0.51-1.18-1.63-0.67-2.51l19.96-34.57C151.75,430.92,152.88,430.62,153.75,431.12z"/>
	<path d="M305.05,376.08l24.57,42.55c0.51,0.88,0.21,2-0.67,2.51l0,0c-0.88,0.51-2,0.2-2.51-0.67l-24.57-42.55
		c-0.51-0.88-0.21-2,0.67-2.51l0,0C303.42,374.9,304.54,375.21,305.05,376.08z"/>
	<path d="M347.36,281.03L347.36,281.03c0.88,0.51,1.18,1.63,0.67,2.51l-38.1,65.99c-0.51,0.88-1.63,1.18-2.51,0.67l0,0
		c-0.88-0.51-1.18-1.63-0.67-2.51l38.1-65.99C345.36,280.82,346.48,280.52,347.36,281.03z"/>
	<path d="M230.6,298.02L230.6,298.02c0.88,0.51,1.18,1.63,0.67,2.51l-24.63,42.66c-0.51,0.88-1.63,1.18-2.51,0.67l0,0
		c-0.88-0.51-1.18-1.63-0.67-2.51l24.63-42.66C228.6,297.82,229.72,297.52,230.6,298.02z"/>
</g>
</svg>
