<?xml version="1.0" encoding="UTF-8"?>
<svg id="a" data-name="Layer 2" xmlns="http://www.w3.org/2000/svg" viewBox="0 0 426.15 222.33">
  <path d="M123.28,2.5L.68,214.84c-1.92,3.33,.48,7.49,4.33,7.49H298.57c1.78,0,3.43-.95,4.32-2.5L425.48,7.49c1.92-3.33-.48-7.49-4.33-7.49H127.6c-1.78,0-3.43,.95-4.32,2.5h0Zm96.27,18.2l-35.31,61.16c-1.92,3.33-6.73,3.33-8.65,0l-35.31-61.16c-1.92-3.33,.48-7.49,4.33-7.49h70.62c3.84,0,6.25,4.16,4.32,7.49h0ZM23.56,201.63l21.65-37.5c1.92-3.33,6.73-3.33,8.65,0l21.65,37.5c1.92,3.33-.48,7.49-4.32,7.49H27.89c-3.84,0-6.25-4.16-4.32-7.49h0Zm70.1,5l-35.05-60.7c-.89-1.55-.89-3.45,0-4.99l23.33-40.41c1.92-3.33,6.73-3.33,8.65,0l58.37,101.11c1.92,3.33-.48,7.49-4.33,7.49h-46.65c-1.78,0-3.43-.95-4.32-2.5h0Zm73.43,0L95.33,82.33c-.89-1.55-.89-3.45,0-4.99l26.87-46.54c1.92-3.33,6.73-3.33,8.65,0l98.63,170.84c1.92,3.33-.48,7.49-4.33,7.49h-53.74c-1.78,0-3.43-.96-4.32-2.5h0Zm123.84,2.5h-38.99c-1.78,0-3.43-.95-4.32-2.5l-13.75-23.81c-1.92-3.33,.48-7.49,4.32-7.49h66.48c3.84,0,6.25,4.16,4.32,7.49l-13.74,23.8c-.89,1.55-2.54,2.5-4.32,2.5h0Zm27.14-47h-93.27c-1.78,0-3.43-.95-4.32-2.5l-26.95-46.67c-1.92-3.33,.48-7.49,4.32-7.49h147.16c3.84,0,6.25,4.16,4.32,7.49l-26.94,46.67c-.89,1.55-2.54,2.5-4.32,2.5h0Zm40.34-69.87H202.15c-3.84,0-6.25-4.16-4.32-7.49L237.69,15.71c.89-1.55,2.54-2.5,4.32-2.5h156.27c3.84,0,6.25,4.16,4.32,7.49l-39.86,69.05c-.89,1.55-2.54,2.5-4.32,2.5h-.01Z" style="fill: #fff;"/>
  <path d="M85.82,103.72h0c.88,.51,1.18,1.63,.67,2.51l-21.17,36.68c-.51,.88-1.63,1.18-2.51,.67h0c-.88-.51-1.18-1.63-.67-2.51l21.17-36.68c.51-.88,1.63-1.18,2.51-.67Z" style="fill: #fff;"/>
  <path d="M251.83,204.96h0c-.88,.51-2,.21-2.51-.67l-13.12-22.72c-.51-.88-.21-2,.67-2.51h0c.88-.51,2-.21,2.5,.67l13.12,22.72c.51,.88,.21,2-.67,2.51h.01Z" style="fill: #fff;"/>
  <path d="M49.12,167.27h0c.88,.51,1.18,1.63,.67,2.51l-19.96,34.57c-.51,.88-1.63,1.18-2.51,.67h0c-.88-.51-1.18-1.63-.67-2.51l19.96-34.57c.51-.88,1.63-1.18,2.51-.67Z" style="fill: #fff;"/>
  <path d="M200.41,112.23l24.57,42.55c.51,.88,.21,2-.67,2.51h0c-.88,.51-2,.21-2.51-.67l-24.57-42.55c-.51-.88-.21-2,.67-2.51h0c.88-.51,2-.21,2.51,.67Z" style="fill: #fff;"/>
  <path d="M242.73,17.18h0c.88,.51,1.18,1.63,.67,2.51l-38.1,65.99c-.51,.88-1.63,1.18-2.51,.67h0c-.88-.51-1.18-1.63-.67-2.51L240.22,17.85c.51-.88,1.63-1.18,2.51-.67h0Z" style="fill: #fff;"/>
  <path d="M125.97,34.17h0c.88,.51,1.18,1.63,.67,2.51l-24.63,42.66c-.51,.88-1.63,1.18-2.51,.67h0c-.88-.51-1.18-1.63-.67-2.51l24.63-42.66c.51-.88,1.63-1.18,2.51-.67h0Z" style="fill: #fff;"/>
</svg>